<svg width="16" height="32" viewBox="0 0 16 32" fill="none" xmlns="http://www.w3.org/2000/svg">
<g clip-path="url(#clip0_57158_691)">
<mask id="mask0_57158_691" style="mask-type:luminance" maskUnits="userSpaceOnUse" x="0" y="0" width="16" height="32">
<path d="M16 0H0V32H16V0Z" fill="white"/>
</mask>
<g mask="url(#mask0_57158_691)">
<path d="M1.70996 1.96415C1.70996 1.6537 1.83155 1.35552 2.09454 1.19055C2.78197 0.75935 4.49075 0 8.00004 0C11.5093 0 13.2181 0.759349 13.9055 1.19055C14.1685 1.35552 14.2901 1.6537 14.2901 1.96415V30.2901C14.2901 30.9646 13.7433 31.5115 13.0687 31.5115H2.93134C2.25679 31.5115 1.70996 30.9646 1.70996 30.2901V1.96415Z" fill="#979797"/>
<path d="M2.44287 2.2137C2.44287 2.2137 2.44287 0.748047 8.00012 0.748047C13.5574 0.748047 13.5574 2.2137 13.5574 2.2137V6.01522C13.5574 6.01522 13.5574 6.77858 8.00012 6.77858C2.44287 6.77858 2.44287 6.01522 2.44287 6.01522V2.2137Z" fill="white"/>
<path d="M12.9467 29.6035H3.05356C2.71628 29.6035 2.44287 29.8769 2.44287 30.2142C2.44287 30.5515 2.71628 30.8249 3.05356 30.8249H12.9467C13.284 30.8249 13.5574 30.5515 13.5574 30.2142C13.5574 29.8769 13.284 29.6035 12.9467 29.6035Z" fill="white"/>
<path d="M2.56501 8.44238C2.49755 8.44238 2.44287 8.49707 2.44287 8.56452V28.1981C2.44287 28.2656 2.49755 28.3203 2.56501 28.3203C2.63246 28.3203 2.68715 28.2656 2.68715 28.1981V8.56452C2.68715 8.49707 2.63246 8.44238 2.56501 8.44238Z" fill="#C9C9C7"/>
<path d="M10.5037 13.3584H5.49604C5.05759 13.3584 4.70215 13.7138 4.70215 14.1523V15.9844C4.70215 16.4228 5.05759 16.7782 5.49604 16.7782H10.5037C10.9421 16.7782 11.2976 16.4228 11.2976 15.9844V14.1523C11.2976 13.7138 10.9421 13.3584 10.5037 13.3584Z" fill="#C9C9C7"/>
<path d="M13.4351 8.44238C13.3677 8.44238 13.313 8.49707 13.313 8.56452V28.1981C13.313 28.2656 13.3677 28.3203 13.4351 28.3203C13.5026 28.3203 13.5573 28.2656 13.5573 28.1981V8.56452C13.5573 8.49707 13.5026 8.44238 13.4351 8.44238Z" fill="#C9C9C7"/>
<path d="M0 4.99246C0 4.72264 0.218731 4.50391 0.488549 4.50391H1.70992V4.99246H0Z" fill="#979797"/>
<path d="M14.29 4.50391H15.5114C15.7812 4.50391 16 4.72264 16 4.99246H14.29V4.50391Z" fill="#979797"/>
</g>
</g>
<defs>
<clipPath id="clip0_57158_691">
<rect width="16" height="32" fill="white"/>
</clipPath>
</defs>
</svg>
